<svg width="48" height="70" viewBox="0 0 48 70" fill="none" xmlns="http://www.w3.org/2000/svg">
<path d="M42.9 10.2H17.7V26.9C21.0333 25.2333 24.4333 24.4 27.9 24.4C31.6333 24.4 34.9667 25.2667 37.9 27C40.8333 28.7333 43.1 31.2333 44.7 34.5C46.3667 37.7667 47.2 41.6333 47.2 46.1C47.2 50.7 46.1667 54.7667 44.1 58.3C42.0333 61.8333 39.1 64.6 35.3 66.6C31.5 68.5333 27.1 69.5 22.1 69.5C17.6333 69.5 13.6667 68.7 10.2 67.1C6.8 65.4333 3.7 63.0667 0.9 60L8.2 53.2C12.0667 57.4667 16.6 59.6 21.8 59.6C25.6 59.6 28.5667 58.4333 30.7 56.1C32.9 53.7667 34 50.4333 34 46.1C34 37.7667 30.4 33.6 23.2 33.6C21.6667 33.6 20.2333 33.8 18.9 34.2C17.5667 34.5333 16.1 35.1 14.5 35.9H5.4V0.699996H44.4L42.9 10.2Z" fill="black"/>
</svg>
