<svg width="100" height="72" viewBox="0 0 100 72" fill="none" xmlns="http://www.w3.org/2000/svg">
<path d="M23.9 0.499994C31.5 0.499994 37.3333 2.86666 41.4 7.6C45.4667 12.2667 47.5 18.6 47.5 26.6C47.5 35.7333 46.1333 43.2333 43.4 49.1C40.6667 54.9 36.4667 59.5333 30.8 63C25.1333 66.4667 17.6333 69.3 8.3 71.5L5.6 62.4C14.4 60.0667 21.0667 57.0667 25.6 53.4C30.2 49.6667 32.9333 44.6 33.8 38.2C30.1333 42.8667 25.3333 45.2 19.4 45.2C15.9333 45.2 12.7333 44.3333 9.8 42.6C6.93333 40.8 4.66667 38.2333 3 34.9C1.33333 31.5667 0.5 27.7 0.5 23.3C0.5 18.7 1.53333 14.7 3.6 11.3C5.66667 7.83333 8.46667 5.16667 12 3.3C15.6 1.43333 19.5667 0.499994 23.9 0.499994ZM22.9 35.9C27.4333 35.9 31.2667 33.6 34.4 29C34.4667 22.1333 33.6667 17.2667 32 14.4C30.4 11.4667 27.7 10 23.9 10C20.5667 10 17.9667 11.1333 16.1 13.4C14.2333 15.6667 13.3 18.9 13.3 23.1C13.3 27.5 14.1667 30.7333 15.9 32.8C17.7 34.8667 20.0333 35.9 22.9 35.9ZM95.2945 11.2H70.0945V27.9C73.4279 26.2333 76.8279 25.4 80.2945 25.4C84.0279 25.4 87.3612 26.2667 90.2945 28C93.2279 29.7333 95.4945 32.2333 97.0945 35.5C98.7612 38.7667 99.5945 42.6333 99.5945 47.1C99.5945 51.7 98.5612 55.7667 96.4945 59.3C94.4279 62.8333 91.4945 65.6 87.6945 67.6C83.8945 69.5333 79.4945 70.5 74.4945 70.5C70.0279 70.5 66.0612 69.7 62.5945 68.1C59.1945 66.4333 56.0945 64.0667 53.2945 61L60.5945 54.2C64.4612 58.4667 68.9945 60.6 74.1945 60.6C77.9945 60.6 80.9612 59.4333 83.0945 57.1C85.2945 54.7667 86.3945 51.4333 86.3945 47.1C86.3945 38.7667 82.7945 34.6 75.5945 34.6C74.0612 34.6 72.6279 34.8 71.2945 35.2C69.9612 35.5333 68.4945 36.1 66.8945 36.9H57.7945V1.7H96.7945L95.2945 11.2Z" fill="black"/>
</svg>
