<svg width="96" height="71" viewBox="0 0 96 71" fill="none" xmlns="http://www.w3.org/2000/svg">
<path d="M33.5 1.7V69H20.9V14.6L5.9 23.7L0.3 15.1L22.2 1.7H33.5ZM71.6195 0.499994C79.4862 0.499994 85.4529 3.49999 89.5195 9.5C93.6529 15.5 95.7195 24.1333 95.7195 35.4C95.7195 46.7333 93.6529 55.4333 89.5195 61.5C85.4529 67.5 79.4862 70.5 71.6195 70.5C63.7529 70.5 57.7529 67.5 53.6195 61.5C49.5529 55.4333 47.5195 46.7333 47.5195 35.4C47.5195 24.1333 49.5529 15.5 53.6195 9.5C57.7529 3.49999 63.7529 0.499994 71.6195 0.499994ZM71.6195 10.2C67.8195 10.2 65.0529 12.1333 63.3195 16C61.5862 19.8 60.7195 26.2667 60.7195 35.4C60.7195 44.6 61.5862 51.1333 63.3195 55C65.0529 58.8667 67.8195 60.8 71.6195 60.8C75.4195 60.8 78.1862 58.9 79.9195 55.1C81.6529 51.2333 82.5195 44.6667 82.5195 35.4C82.5195 26.2 81.6529 19.7 79.9195 15.9C78.1862 12.1 75.4195 10.2 71.6195 10.2Z" fill="black"/>
</svg>
