<svg width="14" height="18" viewBox="0 0 14 18" fill="none" xmlns="http://www.w3.org/2000/svg">
<path d="M6.40336 15.1268L0.497123 10.0201C0.167626 9.73525 0.167626 9.27333 0.497123 8.98844C0.826621 8.70355 1.36087 8.70355 1.69037 8.98844L6.15624 12.8497V1.47951C6.15624 1.07661 6.53399 0.75 6.99998 0.75C7.46597 0.75 7.84372 1.07661 7.84372 1.47951V12.8497L12.3096 8.98844C12.6391 8.70355 13.1734 8.70355 13.5029 8.98844C13.8324 9.27333 13.8324 9.73525 13.5029 10.0201L7.59664 15.1268C7.57714 15.1437 7.55614 15.16 7.53483 15.1751C7.52832 15.1797 7.52156 15.184 7.51481 15.1882C7.51142 15.1903 7.50804 15.1924 7.50469 15.1946C7.4927 15.2024 7.48096 15.2104 7.4685 15.2176C7.4596 15.2228 7.45045 15.2274 7.4413 15.232C7.43809 15.2337 7.43488 15.2353 7.43168 15.2369C7.4282 15.2387 7.42476 15.2406 7.42131 15.2424C7.41353 15.2465 7.40576 15.2506 7.3977 15.2543C7.38824 15.2587 7.37857 15.2625 7.36888 15.2664C7.3657 15.2677 7.36252 15.269 7.35934 15.2703C7.35624 15.2715 7.35315 15.2728 7.35006 15.2741C7.34109 15.2778 7.33211 15.2816 7.32287 15.2849C7.31391 15.2881 7.3048 15.2908 7.29568 15.2936C7.29213 15.2947 7.28857 15.2958 7.28502 15.2969C7.27173 15.301 7.25856 15.3054 7.24496 15.309C7.23586 15.3113 7.22663 15.3133 7.21742 15.3152C7.21382 15.316 7.21022 15.3167 7.20663 15.3175C7.20314 15.3182 7.19966 15.319 7.19618 15.3198C7.18582 15.3222 7.17546 15.3245 7.16487 15.3263C7.15374 15.3282 7.14255 15.3295 7.13136 15.3308C7.12763 15.3313 7.1239 15.3317 7.12017 15.3322C7.11608 15.3327 7.112 15.3333 7.10792 15.3338C7.09975 15.335 7.09158 15.3361 7.08327 15.3368C7.0279 15.3415 6.9721 15.3415 6.91673 15.3368C6.90869 15.3361 6.90078 15.335 6.89287 15.3339C6.88853 15.3333 6.88419 15.3327 6.87983 15.3322C6.8761 15.3317 6.87237 15.3313 6.86864 15.3308C6.85745 15.3295 6.84626 15.3282 6.83513 15.3263C6.82454 15.3245 6.81419 15.3222 6.80383 15.3198C6.80034 15.319 6.79686 15.3182 6.79337 15.3175C6.78986 15.3167 6.78636 15.316 6.78285 15.3153C6.77354 15.3133 6.76424 15.3114 6.75504 15.309C6.74485 15.3063 6.73492 15.3032 6.72497 15.3C6.72165 15.2989 6.71832 15.2979 6.71498 15.2969C6.71184 15.2959 6.7087 15.2949 6.70556 15.294C6.69603 15.2911 6.6865 15.2882 6.67713 15.2849C6.66789 15.2816 6.65891 15.2778 6.64993 15.2741C6.64685 15.2728 6.64376 15.2715 6.64066 15.2703C6.62781 15.265 6.61487 15.2601 6.6023 15.2543C6.59396 15.2504 6.58592 15.2462 6.57787 15.2419C6.5747 15.2403 6.57152 15.2386 6.56832 15.2369C6.56512 15.2353 6.56191 15.2337 6.5587 15.232C6.54954 15.2274 6.5404 15.2228 6.5315 15.2176C6.52216 15.2122 6.51321 15.2063 6.50427 15.2005C6.50129 15.1985 6.49831 15.1966 6.49531 15.1946C6.49179 15.1923 6.48823 15.1901 6.48467 15.1879C6.47809 15.1837 6.47151 15.1796 6.46517 15.1751C6.44386 15.16 6.42286 15.1436 6.40336 15.1268Z" fill="#A2A2A2"/>
<path d="M1.09374 16.6322H12.9062C13.3722 16.6322 13.75 16.9384 13.75 17.3161C13.75 17.6938 13.3723 18 12.9063 18H1.09374C0.62775 18 0.25 17.6938 0.25 17.3161C0.25 16.9383 0.62775 16.6322 1.09374 16.6322Z" fill="#A2A2A2"/>
</svg>
