<svg width="24" height="24" viewBox="0 0 24 24" fill="none" xmlns="http://www.w3.org/2000/svg">
<path d="M21 4.50841C20.2165 5.07307 19.349 5.50495 18.4309 5.78741C17.9382 5.20852 17.2833 4.79822 16.5548 4.612C15.8264 4.42578 15.0596 4.47262 14.3581 4.74619C13.6565 5.01977 13.0542 5.50686 12.6324 6.14161C12.2107 6.77636 11.9899 7.52813 12 8.29525V9.1312C10.5622 9.1693 9.13741 8.84348 7.85264 8.18277C6.56788 7.52207 5.46299 6.54698 4.63636 5.34435C4.63636 5.34435 1.36364 12.8679 8.72727 16.2117C7.04225 17.3803 5.03495 17.9663 3 17.8836C10.3636 22.0633 19.3636 17.8836 19.3636 8.27018C19.3629 8.03733 19.341 7.80505 19.2982 7.57634C20.1332 6.73495 20.7225 5.67264 21 4.50841Z" fill="white"/>
</svg>
