<svg width="18" height="13" viewBox="0 0 18 13" fill="none" xmlns="http://www.w3.org/2000/svg">
<path fill-rule="evenodd" clip-rule="evenodd" d="M17.0494 1.20617C17.3281 1.49578 17.526 1.8544 17.6232 2.2458C17.8827 3.69621 18.0087 5.1677 17.9995 6.6415C18.0047 8.09326 17.8787 9.54248 17.6232 10.9712C17.526 11.3626 17.3281 11.7212 17.0494 12.0108C16.7707 12.3004 16.4211 12.5108 16.036 12.6206C14.6288 13 9 13 9 13C9 13 3.3712 13 1.964 12.6206C1.58669 12.5166 1.24239 12.3162 0.964354 12.0388C0.686319 11.7614 0.483955 11.4164 0.376812 11.0372C0.117272 9.58678 -0.00871244 8.11529 0.000467687 6.6415C-0.00670257 5.17872 0.119273 3.71836 0.376812 2.27878C0.473997 1.88739 0.671928 1.52877 0.950611 1.23916C1.22929 0.949552 1.57886 0.739205 1.964 0.629366C3.3712 0.25 9 0.25 9 0.25C9 0.25 14.6288 0.25 16.036 0.596378C16.4211 0.706216 16.7707 0.916563 17.0494 1.20617ZM11.6103 6.65591L7.29778 9.10841V4.20341L11.6103 6.65591Z" fill="white"/>
</svg>
